<?xml version="1.0" encoding="iso-8859-1"?>
<!-- Uploaded to: SVG Repo, www.svgrepo.com, Generator: SVG Repo Mixer Tools -->
<svg height="800px" width="800px" version="1.1" id="Layer_1" xmlns="http://www.w3.org/2000/svg" xmlns:xlink="http://www.w3.org/1999/xlink" 
	 viewBox="0 0 512 512" xml:space="preserve">
<path style="fill:#FFA733;" d="M315.948,407.539l13.256-19.883c1.998-2.998,1.324-7.026-1.547-9.202
	c-21.112-15.996-49.47-39.367-74.184-66.153c-34.443-37.329-51.907-70.809-51.907-99.51c0-83.507,67.938-151.444,151.444-151.444
	s151.444,67.938,151.444,151.444c0,28.701-17.464,62.182-51.906,99.511c-24.714,26.786-53.073,50.157-74.184,66.153
	c-2.872,2.175-3.545,6.204-1.547,9.202l13.256,19.883c3.018,4.527-0.227,10.591-5.668,10.591h-62.788
	C316.176,418.13,312.93,412.066,315.948,407.539z"/>
<path style="fill:#E2942D;" d="M344.226,407.539l13.256-19.883c1.998-2.998,1.324-7.026-1.547-9.202
	c-21.112-15.995-49.47-39.367-74.184-66.153c-34.442-37.33-51.906-70.81-51.906-99.511c0-78.739,60.404-143.625,137.305-150.779
	c-4.657-0.433-9.371-0.665-14.139-0.665c-83.507,0-151.444,67.938-151.444,151.444c0,28.701,17.464,62.182,51.906,99.511
	c24.714,26.786,53.073,50.157,74.184,66.153c2.872,2.175,3.545,6.204,1.547,9.202l-13.256,19.883
	c-3.018,4.527,0.227,10.591,5.668,10.591h28.277C344.453,418.13,341.208,412.066,344.226,407.539z"/>
<path style="fill:#FF3501;" d="M121.927,353.737l13.256-19.883c1.998-2.998,1.324-7.026-1.547-9.202
	c-21.112-15.996-49.47-39.367-74.184-66.153c-34.443-37.329-51.907-70.809-51.907-99.51c0-83.507,67.938-151.444,151.444-151.444
	s151.444,67.938,151.444,151.444c0,28.701-17.464,62.182-51.906,99.511c-24.714,26.786-53.073,50.157-74.184,66.153
	c-2.872,2.175-3.545,6.204-1.547,9.202l13.256,19.883c3.018,4.527-0.227,10.591-5.668,10.591h-62.788
	C122.155,364.328,118.909,358.264,121.927,353.737z"/>
<path style="fill:#AC2201;" d="M150.205,353.737l13.256-19.883c1.998-2.998,1.324-7.026-1.547-9.202
	c-21.112-15.995-49.47-39.367-74.184-66.153c-34.442-37.33-51.906-70.81-51.906-99.511c0-78.739,60.404-143.625,137.305-150.779
	c-4.658-0.432-9.372-0.664-14.14-0.664C75.483,7.545,7.545,75.483,7.545,158.989c0,28.701,17.464,62.182,51.906,99.511
	c24.714,26.786,53.073,50.157,74.184,66.153c2.872,2.175,3.545,6.204,1.547,9.202l-13.256,19.883
	c-3.018,4.527,0.227,10.591,5.668,10.591h28.277C150.432,364.328,147.187,358.264,150.205,353.737z"/>
<path style="fill:#FF3501;" d="M158.989,388.042c-4.466,0-8.084,3.62-8.084,8.084v107.789c0,4.465,3.618,8.084,8.084,8.084
	c4.466,0,8.084-3.62,8.084-8.084V396.126C167.074,391.662,163.455,388.042,158.989,388.042z"/>
<path style="fill:#FFA733;" d="M353.01,512c-4.466,0-8.084-3.62-8.084-8.084v-53.895c0-4.465,3.618-8.084,8.084-8.084
	c4.466,0,8.084,3.62,8.084,8.084v53.895C361.095,508.38,357.476,512,353.01,512z"/>
<path d="M158.989,388.042c-4.466,0-8.084,3.62-8.084,8.084v107.789c0,4.465,3.618,8.084,8.084,8.084c4.466,0,8.084-3.62,8.084-8.084
	V396.126C167.074,391.662,163.455,388.042,158.989,388.042z"/>
<path d="M353.01,53.895c-22.376,0-43.926,4.541-64.15,13.484C260.043,26.646,212.571,0,158.989,0C71.322,0,0,71.322,0,158.989
	c0,30.068,17.668,64.721,52.512,102.999c25.141,27.62,54.209,51.701,76.011,68.256l-19.375,29.061
	c-1.653,2.48-1.809,5.67-0.401,8.299c1.407,2.628,4.147,4.27,7.127,4.27h86.232c2.981,0,5.721-1.641,7.127-4.27
	c1.408-2.629,1.253-5.818-0.401-8.299l-19.375-29.061c12.016-9.124,26.242-20.545,40.799-33.574
	c28.386,36.227,67.589,68.694,92.288,87.467L303.169,413.2c-1.653,2.48-1.809,5.67-0.401,8.299c1.407,2.628,4.147,4.27,7.127,4.27
	h86.232c2.981,0,5.721-1.641,7.127-4.27c1.408-2.629,1.253-5.818-0.401-8.299l-19.375-29.061
	c21.802-16.554,50.869-40.637,76.011-68.256C494.332,277.605,512,242.952,512,212.884C512,125.217,440.678,53.895,353.01,53.895z
	 M367.686,375.778c-3.458,2.566-4.289,7.387-1.9,10.97l15.235,22.852h-56.021l15.236-22.852c2.391-3.586,1.547-8.412-1.914-10.979
	c-23.431-17.391-66.422-51.779-96.142-90.087c7.914-7.513,15.776-15.44,23.287-23.691c2.963-3.255,5.797-6.482,8.508-9.684
	c2.688-3.175,2.466-7.888-0.475-10.831l-0.019-0.019c-3.301-3.301-8.733-3.118-11.754,0.438
	c-28.908,34.016-66.494,63.984-88.063,79.992c-3.457,2.565-4.286,7.387-1.898,10.969L187,355.705h-56.021l15.236-22.852
	c2.389-3.583,1.558-8.403-1.9-10.97c-38.523-28.59-128.145-101.708-128.145-162.894c0-78.752,64.069-142.821,142.821-142.821
	s142.821,64.069,142.821,142.821c0,16.788-6.754,34.474-17.343,51.893c-1.932,3.178-1.479,7.255,1.15,9.885l0,0
	c3.686,3.686,9.842,2.921,12.55-1.534c13.166-21.657,19.812-41.813,19.812-60.245c0-28.237-7.408-54.772-20.37-77.781
	c17.513-7.394,36.113-11.145,55.402-11.145c78.752,0,142.821,64.069,142.821,142.821
	C495.832,274.07,406.209,347.188,367.686,375.778z"/>
<path d="M353.01,441.937c-4.466,0-8.084,3.62-8.084,8.084v53.895c0,4.465,3.618,8.084,8.084,8.084c4.466,0,8.084-3.62,8.084-8.084
	v-53.895C361.095,445.556,357.476,441.937,353.01,441.937z"/>
</svg>